<?xml version="1.0" encoding="utf-8"?>
<!-- Generator: Adobe Illustrator 21.0.0, SVG Export Plug-In . SVG Version: 6.00 Build 0)  -->
<svg version="1.1" id="Layer_1" xmlns="http://www.w3.org/2000/svg" xmlns:xlink="http://www.w3.org/1999/xlink" x="0px" y="0px"
	 viewBox="0 0 17.5 17.5" style="enable-background:new 0 0 17.5 17.5;" xml:space="preserve">
<style type="text/css">
	.st0{enable-background:new    ;}
	.st1{fill:#E1463D;}
</style>
<title>icon-github</title>
<desc>Created with Sketch.</desc>
<g id="Otid-Home-V3">
	<g id="otis-home-v3" transform="translate(-1172.000000, -21.000000)">
		<g id="Nav">
			<g id="Group-28" transform="translate(992.000000, 19.000000)">
				<g id="Group-27" transform="translate(180.000000, 0.000000)">
					<g class="st0">
						<path class="st1" d="M2.6,4.6C4.3,2.9,6.3,2,8.8,2s4.5,0.9,6.2,2.6c1.7,1.8,2.6,3.9,2.6,6.3c0,2-0.6,3.7-1.7,5.3
							c-1.1,1.6-2.6,2.6-4.3,3.2h-0.2c-0.3,0-0.5-0.2-0.5-0.5c0,0,0-0.3,0-0.9c0-0.6,0-1.1,0-1.5c0-0.8-0.2-1.3-0.6-1.7
							c1.2-0.2,2.2-0.5,2.9-1.2c0.7-0.6,1.1-1.7,1.1-3.3c0-0.9-0.3-1.7-0.9-2.4c0.3-0.8,0.2-1.5-0.1-2.4h-0.2
							c-0.6,0-1.3,0.3-2.2,0.9c-0.8-0.2-1.5-0.3-2.2-0.3S7.3,6.4,6.6,6.6C5.7,6,4.9,5.7,4.3,5.7H4.1C3.8,6.5,3.8,7.3,4.1,8.1
							c-0.6,0.7-0.9,1.5-0.9,2.4c0,1.6,0.4,2.7,1.1,3.3c0.7,0.6,1.7,1,2.9,1.2c-0.3,0.3-0.5,0.7-0.5,1.2c-0.3,0.2-0.7,0.2-1,0.2
							c-0.7,0-1.2-0.3-1.5-1c-0.3-0.6-0.8-0.9-1.4-0.9c-0.5,0-0.6,0.2,0,0.5c0.4,0.2,0.7,0.7,1,1.3c0,0.1,0.1,0.2,0.2,0.4
							c0.1,0.1,0.3,0.3,0.6,0.6s0.8,0.4,1.3,0.4c0.4,0,0.7,0,0.9-0.1v1.5c0,0.3-0.1,0.4-0.4,0.4H6c-1.8-0.6-3.2-1.7-4.3-3.2
							C0.6,14.7,0,13,0,11C0,8.5,0.9,6.4,2.6,4.6z"/>
					</g>
				</g>
			</g>
		</g>
	</g>
</g>
</svg>
